<svg width="103" height="103" viewBox="0 0 103 103" fill="none" xmlns="http://www.w3.org/2000/svg">
<g clip-path="url(#clip0_237_308)">
<path fill-rule="evenodd" clip-rule="evenodd" d="M27.8634 22.1862L10.577 22.673L12.0472 74.8787L34.7401 74.2396C35.4953 74.2184 36.1258 74.8143 36.147 75.5695C36.1683 76.3248 35.5723 76.9551 34.8172 76.9764L10.7559 77.654C10.0001 77.6753 9.37021 77.0799 9.34893 76.3242L7.80166 21.3817C7.78038 20.6259 8.37577 19.996 9.13151 19.9747L64.0742 18.4275C64.8299 18.4062 65.4598 19.0016 65.4811 19.7573L66.1011 41.7709C66.1223 42.5261 65.5264 43.1566 64.7712 43.1779C64.0159 43.1991 63.3856 42.6032 63.3643 41.848L62.7829 21.2028L45.4966 21.6896L46.0698 42.0422C46.085 42.5821 45.7813 43.0804 45.2945 43.3145C44.8077 43.5485 44.2289 43.4745 43.8166 43.1255L37.1168 37.4523L30.747 43.4936C30.355 43.8652 29.7813 43.9717 29.282 43.7655C28.7828 43.5591 28.4518 43.0787 28.4366 42.5388L27.8634 22.1862ZM42.7599 21.7667L30.6002 22.1091L31.0871 39.3977L36.1231 34.6214C36.6298 34.1409 37.4168 34.1187 37.9497 34.5699L43.2467 39.0552L42.7599 21.7667ZM50.96 86.838L50.8177 86.9256C46.5473 89.5563 40.9003 88.2134 38.2733 83.943C35.6428 79.6725 36.9892 74.0255 41.2594 71.3989L47.2315 67.7237C47.6388 67.4729 48.126 67.4612 48.5292 67.6494C54.6249 62.7923 59.2457 57.3467 61.857 52.1466L61.8045 52.0613C60.3685 49.7282 61.1014 46.6448 63.4343 45.2087C65.7672 43.7729 68.851 44.5091 70.287 46.842L75.1519 54.7456C77.7015 53.4481 80.8627 54.3057 82.3903 56.7882C83.917 59.2666 83.261 62.4752 80.9523 64.1693L85.8173 72.073C87.2536 74.4022 86.5215 77.4869 84.1879 78.9233C81.855 80.3592 78.7715 79.6263 77.3355 77.2935L77.2845 77.2106C71.5476 77.1968 64.7174 78.8224 57.7383 81.989L66.2739 92.827C67.2082 94.0141 67.1018 95.6888 66.0158 96.7305L64.2189 98.4546L64.2168 98.4568C63.6132 99.0374 62.873 99.3108 62.0311 99.261L62.0301 99.261C61.1875 99.2104 60.4736 98.8439 59.9477 98.1844L59.9449 98.1809L50.96 86.838ZM47.5006 70.7727L42.6941 73.7306C39.7063 75.5684 38.764 79.5197 40.6046 82.5075L40.605 82.5083C42.4429 85.4959 46.3938 86.4351 49.3816 84.5945L49.3822 84.5943L54.1883 81.6364L47.5006 70.7727ZM55.7504 83.8898L53.3081 85.3928L62.0885 96.4776C62.0893 96.4787 62.0903 96.4799 62.0911 96.481C62.117 96.5114 62.1528 96.5252 62.193 96.5278L62.194 96.528C62.2418 96.5306 62.2846 96.5165 62.3191 96.4832L62.3212 96.4812L64.1204 94.7549C64.1854 94.6926 64.1784 94.5918 64.1228 94.5208L64.1224 94.5204L55.7504 83.8898ZM63.5185 54.8458C60.6507 59.9197 56.0638 65.1599 50.152 69.8568C51.16 71.4943 55.1921 78.0446 56.2002 79.6821C63.0567 76.5182 69.8012 74.7835 75.6228 74.5108L63.5185 54.8458ZM76.5966 57.0928L79.5075 61.822C80.5315 60.9353 80.7919 59.4137 80.059 58.2239L80.0586 58.2232C79.3252 57.0311 77.8487 56.5777 76.5966 57.0928ZM64.8694 47.5404C63.8191 48.187 63.4894 49.5756 64.136 50.6261L79.667 75.8583C80.3136 76.9087 81.7024 77.2384 82.7527 76.5917C83.8027 75.9455 84.133 74.5579 83.4867 73.5097L67.9552 48.2771C67.3086 47.2264 65.9202 46.8936 64.8694 47.5404ZM86.8793 55.63C86.2356 56.0257 85.3918 55.8245 84.9961 55.1808C84.6004 54.5372 84.8016 53.6934 85.4453 53.2977L89.8567 50.5854C90.5001 50.1896 91.3441 50.3909 91.7398 51.0345C92.1356 51.6782 91.9343 52.522 91.2907 52.9177L86.8793 55.63ZM80.3315 50.2281C79.9721 50.8927 79.1407 51.1403 78.4762 50.7808C77.8117 50.4214 77.5641 49.59 77.9235 48.9255L80.5223 44.121C80.8819 43.4564 81.7133 43.2088 82.3778 43.5683C83.0423 43.9277 83.2899 44.7591 82.9305 45.4236L80.3315 50.2281ZM87.3945 64.3162C86.6393 64.3374 86.0088 63.7415 85.9875 62.9863C85.9663 62.2311 86.5622 61.6006 87.3174 61.5794L92.7782 61.4256C93.5334 61.4043 94.1639 62.0003 94.1852 62.7554C94.2064 63.5106 93.6105 64.1411 92.8553 64.1624L87.3945 64.3162ZM63.8315 15.1926C63.0787 15.1302 62.5179 14.4681 62.5805 13.7153C62.6428 12.9623 63.3049 12.4017 64.0579 12.4641C65.8575 12.6133 67.5994 13.3349 68.9963 14.6406C70.3931 15.9461 71.2305 17.6355 71.5007 19.4209C71.6137 20.168 71.099 20.8663 70.3519 20.9794C69.605 21.0924 68.9066 20.5778 68.7936 19.8307C68.6133 18.6398 68.0582 17.5114 67.1267 16.6406C66.195 15.7698 65.0318 15.2922 63.8315 15.1926ZM64.4844 10.0876C63.7296 10.0527 63.1452 9.41178 63.1801 8.657C63.2149 7.90222 63.856 7.3178 64.6106 7.35269C67.4536 7.48392 70.3194 8.61833 72.6174 10.7663C74.9156 12.9144 76.2406 15.6973 76.5632 18.5247C76.6489 19.2753 76.1089 19.9544 75.3583 20.0401C74.6077 20.1258 73.9287 19.5859 73.843 18.8351C73.5905 16.6221 72.5466 14.4477 70.7479 12.7665C68.9492 11.0854 66.7093 10.1904 64.4844 10.0876ZM65.3196 5.26874C64.5654 5.22698 63.9869 4.58045 64.0287 3.82606C64.0706 3.07167 64.7171 2.49315 65.4715 2.5351C69.2466 2.74455 73.0222 4.25831 76.0528 7.09111C79.0834 9.92372 80.8482 13.5886 81.3117 17.3412C81.4044 18.091 80.8708 18.775 80.121 18.8677C79.3711 18.9602 78.6872 18.4266 78.5945 17.6768C78.2061 14.5328 76.7224 11.4645 74.1833 9.09115C71.644 6.71776 68.4828 5.44436 65.3196 5.26874Z" fill="white"/>
</g>
<defs>
<clipPath id="clip0_237_308">
<rect width="99.7363" height="99.7363" fill="white" transform="translate(0 2.80859) rotate(-1.61312)"/>
</clipPath>
</defs>
</svg>
