<svg width="68" height="68" viewBox="0 0 68 68" fill="none" xmlns="http://www.w3.org/2000/svg">
<path d="M18.5352 18.0078L32.2161 5.68943L33.6377 7.26831L19.9568 19.5867L18.5352 18.0078Z" fill="#C8CDED"/>
<path d="M34.3516 7.2832L35.7732 5.70433L48.9734 17.5898L47.5517 19.1687L34.3516 7.2832Z" fill="#C8CDED"/>
<path d="M61.625 17H6.375C4.02779 17 2.125 18.9028 2.125 21.25V61.625C2.125 63.9722 4.02779 65.875 6.375 65.875H61.625C63.9722 65.875 65.875 63.9722 65.875 61.625V21.25C65.875 18.9028 63.9722 17 61.625 17Z" fill="#E2E7F6"/>
<path d="M61.625 57.375V17H6.375C5.24783 17 4.16683 17.4478 3.3698 18.2448C2.57277 19.0418 2.125 20.1228 2.125 21.25V61.625H57.375C58.5022 61.625 59.5832 61.1772 60.3802 60.3802C61.1772 59.5832 61.625 58.5022 61.625 57.375Z" fill="#F2F2F2"/>
<path d="M34 61.625C45.1492 61.625 54.1875 52.5867 54.1875 41.4375C54.1875 30.2883 45.1492 21.25 34 21.25C22.8508 21.25 13.8125 30.2883 13.8125 41.4375C13.8125 52.5867 22.8508 61.625 34 61.625Z" fill="#4C6CB5"/>
<path d="M34 55.25C41.6284 55.25 47.8125 49.0659 47.8125 41.4375C47.8125 33.8091 41.6284 27.625 34 27.625C26.3716 27.625 20.1875 33.8091 20.1875 41.4375C20.1875 49.0659 26.3716 55.25 34 55.25Z" fill="#C8CDED"/>
<path d="M34 49.9375C38.6944 49.9375 42.5 46.1319 42.5 41.4375C42.5 36.7431 38.6944 32.9375 34 32.9375C29.3056 32.9375 25.5 36.7431 25.5 41.4375C25.5 46.1319 29.3056 49.9375 34 49.9375Z" fill="#F2F2F2"/>
<path d="M34.3047 39.623L49.049 24.8787L50.5514 26.3811L35.8071 41.1254L34.3047 39.623Z" fill="#FCE797"/>
<path d="M34 43.5625C35.1736 43.5625 36.125 42.6111 36.125 41.4375C36.125 40.2639 35.1736 39.3125 34 39.3125C32.8264 39.3125 31.875 40.2639 31.875 41.4375C31.875 42.6111 32.8264 43.5625 34 43.5625Z" fill="#D23F34"/>
<path d="M34 8.5C35.7604 8.5 37.1875 7.07291 37.1875 5.3125C37.1875 3.55209 35.7604 2.125 34 2.125C32.2396 2.125 30.8125 3.55209 30.8125 5.3125C30.8125 7.07291 32.2396 8.5 34 8.5Z" fill="#5E87CA"/>
<path d="M30.8125 5.3125C30.815 6.0873 31.1016 6.83428 31.6179 7.412C31.705 7.41838 31.7868 7.4375 31.875 7.4375C32.4886 7.44029 33.0898 7.26514 33.606 6.93326C34.1221 6.60138 34.5309 6.12701 34.783 5.56757C35.035 5.00813 35.1195 4.38761 35.0262 3.78115C34.9329 3.17468 34.6657 2.60828 34.2571 2.1505C34.17 2.14412 34.0882 2.125 34 2.125C33.1546 2.125 32.3439 2.46083 31.7461 3.0586C31.1483 3.65637 30.8125 4.46712 30.8125 5.3125Z" fill="#78A0D4"/>
<path d="M47.8125 27.625V20.1875L54.1875 13.8125V21.25H61.625L55.25 27.625H47.8125Z" fill="#B52F28"/>
<path d="M47.8125 27.5729L54.1875 21.1979V13.8125L47.8125 20.1875V27.5729Z" fill="#D23F34"/>
</svg>
