<svg width="65" height="65" viewBox="0 0 65 65" fill="none" xmlns="http://www.w3.org/2000/svg">
<g clip-path="url(#clip0_1054_3007)">
<path d="M65 32.5C65 14.5505 50.4495 0 32.5 0C14.5505 0 0 14.5505 0 32.5C0 50.4495 14.5505 65 32.5 65C50.4495 65 65 50.4495 65 32.5Z" fill="#DEECF1"/>
<path d="M34.6671 0.0738907C50.8888 1.14208 63.8579 14.1096 64.927 30.3309L47.5454 47.7131L39.166 51.6069L33.9242 56.875L31.6891 54.6399L31.2314 52.263L25.9842 51.2053L15.8701 44.265L12.4002 33.474L10.364 33.3093L8.12891 31.0748L13.458 25.6872L17.2363 17.5047L34.6671 0.0738907Z" fill="#C5D3DD"/>
<path d="M53.8375 33.9282C53.1522 44.6111 44.6111 53.1522 33.9282 53.8375V56.875H31.0718V53.8375C20.3889 53.1522 11.8478 44.6111 11.1625 33.9282H8.125V31.0718H11.1625C11.8478 20.3889 20.3889 11.8478 31.0718 11.1625V8.125H33.9282V11.1625C44.6111 11.8478 53.1522 20.3889 53.8375 31.0718H56.875V33.9282H53.8375ZM32.5 13.9331C22.2738 13.9331 13.9331 22.2738 13.9331 32.5C13.9331 42.7262 22.2738 51.0669 32.5 51.0669C42.7262 51.0669 51.0669 42.7262 51.0669 32.5C51.0669 22.2738 42.7262 13.9331 32.5 13.9331Z" fill="#FF641A"/>
<path d="M32.4995 48.2109C23.8444 48.2109 16.7891 41.1556 16.7891 32.5005C16.7891 23.8454 23.8444 16.79 32.4995 16.79C41.1546 16.79 48.21 23.8454 48.21 32.5005C48.21 41.1556 41.1546 48.2109 32.4995 48.2109ZM32.4995 19.6465C25.4154 19.6465 19.6455 25.4164 19.6455 32.5005C19.6455 39.5846 25.4154 45.3545 32.4995 45.3545C39.5836 45.3545 45.3535 39.5846 45.3535 32.5005C45.3535 25.4164 39.5836 19.6465 32.4995 19.6465Z" fill="#FF641A"/>
<path d="M32.5015 42.498C26.9884 42.498 22.5039 38.0135 22.5039 32.5005C22.5039 26.9874 26.9884 22.5029 32.5015 22.5029C38.0145 22.5029 42.499 26.9874 42.499 32.5005C42.499 38.0135 38.0145 42.498 32.5015 42.498ZM32.5015 25.3594C28.5595 25.3594 25.3604 28.5585 25.3604 32.5005C25.3604 36.4425 28.5595 39.6416 32.5015 39.6416C36.4435 39.6416 39.6426 36.4425 39.6426 32.5005C39.6426 28.5585 36.4435 25.3594 32.5015 25.3594Z" fill="#FF641A"/>
<path d="M34.5282 32.4996L36.5272 30.4718L34.5282 28.4723L32.4999 30.4718L30.4717 28.4723L28.4727 30.4718L30.4717 32.4996L28.4727 34.5278L30.4717 36.5273L32.4999 34.5278L34.5282 36.5273L36.5272 34.5278L34.5282 32.4996Z" fill="#FF641A"/>
<path d="M34.5283 28.4723L32.5 30.4718V34.5278L34.5283 36.5273L36.5273 34.5278L34.5283 32.4996L36.5273 30.4718L34.5283 28.4723Z" fill="#F03800"/>
<path d="M42.4976 32.5005C42.4976 26.9874 38.013 22.5029 32.5 22.5029V25.3594C36.442 25.3594 39.6411 28.5585 39.6411 32.5005C39.6411 36.4425 36.442 39.6416 32.5 39.6416V42.498C38.013 42.498 42.4976 38.0135 42.4976 32.5005Z" fill="#F03800"/>
<path d="M48.2104 32.5005C48.2104 23.8454 41.1551 16.79 32.5 16.79V19.6465C39.5841 19.6465 45.354 25.4164 45.354 32.5005C45.354 39.5846 39.5841 45.3545 32.5 45.3545V48.2109C41.1551 48.2109 48.2104 41.1556 48.2104 32.5005Z" fill="#F03800"/>
<path d="M56.875 33.9282V31.0718H53.8375C53.1522 20.3889 44.6111 11.8478 33.9282 11.1625V8.125H32.5V13.9331C42.7262 13.9331 51.0669 22.2738 51.0669 32.5C51.0669 42.7262 42.7262 51.0669 32.5 51.0669V56.875H33.9282V53.8375C44.6111 53.1522 53.1522 44.6111 53.8375 33.9282H56.875Z" fill="#F03800"/>
</g>
<defs>
<clipPath id="clip0_1054_3007">
<rect width="65" height="65" fill="white" transform="matrix(1 0 0 -1 0 65)"/>
</clipPath>
</defs>
</svg>
