<svg width="22" height="22" viewBox="0 0 22 22" fill="none" xmlns="http://www.w3.org/2000/svg">
<path d="M2.70251 13.161H4.20929C4.3715 13.7561 4.59942 14.3267 4.88906 14.8633L3.82438 15.966C3.66009 16.136 3.56969 16.3621 3.56969 16.6027C3.56969 16.8433 3.66027 17.0692 3.82438 17.2392L5.54535 19.0216C5.70947 19.1916 5.92783 19.2854 6.16009 19.2854C6.39236 19.2854 6.61055 19.1918 6.77484 19.0216L7.83951 17.9189C8.35759 18.2189 8.90835 18.455 9.48311 18.623V20.1834C9.48311 20.6798 9.87306 21.0837 10.3524 21.0837H11.5693C11.7613 21.0837 11.917 20.9223 11.917 20.7235C11.917 20.5248 11.7613 20.3634 11.5693 20.3634H10.3524C10.2566 20.3634 10.1785 20.2826 10.1785 20.1834V18.3453C10.1785 18.1793 10.069 18.0349 9.91339 17.9955C9.22233 17.8206 8.56639 17.5395 7.96381 17.1602C7.82682 17.0739 7.65071 17.0959 7.53735 17.2133L6.28335 18.512C6.23902 18.558 6.18721 18.5648 6.16027 18.5648C6.13349 18.5648 6.08169 18.558 6.03735 18.512L4.31639 16.7295C4.27206 16.6837 4.26545 16.6301 4.26545 16.6022C4.26545 16.5742 4.27206 16.5208 4.31639 16.4747L5.57039 15.1759C5.68374 15.0585 5.70495 14.8761 5.62167 14.7342C5.25554 14.11 4.98416 13.4306 4.81517 12.715C4.77692 12.5542 4.63732 12.4408 4.4772 12.4408H2.70251C2.60672 12.4408 2.52866 12.36 2.52866 12.2607V9.73991C2.52866 9.6407 2.60672 9.55985 2.70251 9.55985H4.4772C4.63749 9.55985 4.77692 9.44641 4.815 9.28526C4.98381 8.56988 5.25519 7.89034 5.6215 7.26607C5.70477 7.12418 5.68339 6.94178 5.57021 6.82438L4.31621 5.52562C4.27188 5.4797 4.26527 5.42604 4.26527 5.39813C4.26527 5.3704 4.27188 5.31675 4.31621 5.27083L6.03718 3.48824C6.10516 3.41784 6.2152 3.41802 6.28318 3.48824L7.53718 4.78719C7.65053 4.90459 7.82664 4.92656 7.96364 4.84031C8.56656 4.46092 9.22251 4.17985 9.91322 4.00501C10.0686 3.96576 10.1782 3.82117 10.1782 3.65534V1.81729C10.1782 1.71808 10.2562 1.63723 10.352 1.63723H11.569C11.7609 1.63723 11.9167 1.4759 11.9167 1.27711C11.9167 1.07833 11.7609 0.916992 11.569 0.916992H10.352C9.87271 0.916992 9.48276 1.32087 9.48276 1.81729V3.37787C8.90835 3.54586 8.35742 3.78192 7.83934 4.0819L6.77466 2.97903C6.43565 2.6281 5.88419 2.6281 5.54535 2.97903L3.82438 4.76144C3.66027 4.93142 3.56969 5.15757 3.56969 5.39813C3.56969 5.63869 3.66009 5.86467 3.82438 6.03482L4.88906 7.13751C4.59942 7.67409 4.3715 8.24469 4.20929 8.83961H2.70251C2.2232 8.83961 1.83325 9.24348 1.83325 9.73991V12.2607C1.83325 12.7572 2.2232 13.161 2.70251 13.161Z" fill="black"/>
<path d="M13.8289 4.48181V5.7786H11.5688C8.78875 5.7786 6.5271 8.12099 6.5271 11.0003C6.5271 13.8797 8.78875 16.2221 11.5688 16.2221H13.8289V17.5188C13.0363 17.6861 12.4381 18.4136 12.4381 19.2831C12.4381 20.2759 13.218 21.0837 14.1766 21.0837C15.1352 21.0837 15.9151 20.2759 15.9151 19.2831C15.9151 18.4136 15.3169 17.6861 14.5243 17.5188V15.8619C14.5243 15.6631 14.3685 15.5018 14.1766 15.5018H11.5688C9.17227 15.5018 7.22251 13.4824 7.22251 11.0003C7.22251 8.5182 9.17227 6.49884 11.5688 6.49884H14.1766C14.3685 6.49884 14.5243 6.3375 14.5243 6.13872V4.48181C15.3169 4.31454 15.9151 3.58709 15.9151 2.71759C15.9151 1.72474 15.1352 0.916992 14.1766 0.916992C13.218 0.916992 12.4381 1.72474 12.4381 2.71759C12.4381 3.58709 13.0363 4.31454 13.8289 4.48181ZM15.2197 19.2831C15.2197 19.8789 14.7519 20.3634 14.1766 20.3634C13.6013 20.3634 13.1335 19.8789 13.1335 19.2831C13.1335 18.6872 13.6013 18.2027 14.1766 18.2027C14.7519 18.2027 15.2197 18.6872 15.2197 19.2831ZM14.1766 1.63723C14.7519 1.63723 15.2197 2.12177 15.2197 2.71759C15.2197 3.3134 14.7519 3.79794 14.1766 3.79794C13.6013 3.79794 13.1335 3.3134 13.1335 2.71759C13.1335 2.12177 13.6013 1.63723 14.1766 1.63723Z" fill="black"/>
<path d="M18.5579 10.46H11.221C11.0291 10.46 10.8733 10.6213 10.8733 10.8201C10.8733 11.0189 11.0291 11.1802 11.221 11.1802H18.5579C18.7194 12.0011 19.4218 12.6207 20.2613 12.6207C21.2199 12.6207 21.9999 11.813 21.9999 10.8201C21.9999 9.82728 21.2199 9.01953 20.2613 9.01953C19.4218 9.01953 18.7194 9.63912 18.5579 10.46ZM21.3044 10.8201C21.3044 11.4159 20.8366 11.9005 20.2613 11.9005C19.686 11.9005 19.2182 11.4159 19.2182 10.8201C19.2182 10.2243 19.686 9.73977 20.2613 9.73977C20.8366 9.73977 21.3044 10.2243 21.3044 10.8201Z" fill="black"/>
<path d="M8.7876 10.9999C8.7876 12.5883 10.0355 13.8808 11.5692 13.8808H16.0894V16.2216C16.0894 16.4204 16.2452 16.5817 16.4371 16.5817H17.5153C17.6769 17.4026 18.3792 18.0222 19.2187 18.0222C20.1774 18.0222 20.9573 17.2144 20.9573 16.2216C20.9573 15.2287 20.1774 14.421 19.2187 14.421C18.3792 14.421 17.6769 15.0406 17.5153 15.8615H16.7848V13.5207C16.7848 13.3219 16.629 13.1606 16.4371 13.1606H11.5692C10.4189 13.1606 9.48301 12.1913 9.48301 10.9999C9.48301 9.80841 10.4189 8.83915 11.5692 8.83915H16.4371C16.629 8.83915 16.7848 8.67781 16.7848 8.47903V6.13825H17.5153C17.6769 6.95914 18.3792 7.57873 19.2187 7.57873C20.1774 7.57873 20.9573 6.77098 20.9573 5.77813C20.9573 4.78529 20.1774 3.97754 19.2187 3.97754C18.3792 3.97754 17.6769 4.59712 17.5153 5.41802H16.4371C16.2452 5.41802 16.0894 5.57935 16.0894 5.77813V8.11891H11.5692C10.0355 8.11891 8.7876 9.41137 8.7876 10.9999ZM19.2187 15.1412C19.794 15.1412 20.2619 15.6258 20.2619 16.2216C20.2619 16.8174 19.794 17.3019 19.2187 17.3019C18.6435 17.3019 18.1756 16.8174 18.1756 16.2216C18.1756 15.6258 18.6435 15.1412 19.2187 15.1412ZM19.2187 4.69778C19.794 4.69778 20.2619 5.18232 20.2619 5.77813C20.2619 6.37395 19.794 6.85849 19.2187 6.85849C18.6435 6.85849 18.1756 6.37395 18.1756 5.77813C18.1756 5.18232 18.6435 4.69778 19.2187 4.69778Z" fill="black"/>
</svg>
