<svg width="22" height="22" viewBox="0 0 22 22" fill="none" xmlns="http://www.w3.org/2000/svg">
<g clip-path="url(#clip0_358_2)">
<path d="M20.6252 19.7083H17.1877C17.0612 19.7083 16.9585 19.6057 16.9585 19.4792C16.9585 19.3527 17.0612 19.25 17.1877 19.25H20.6252V5.27083L21.0835 4.8125V19.25C21.0835 19.5025 20.8782 19.7083 20.6252 19.7083Z" fill="black"/>
<path d="M20.8543 5.50033H17.1877C17.0612 5.50033 16.9585 5.39766 16.9585 5.27116C16.9585 5.14466 17.0612 5.04199 17.1877 5.04199H20.6252V2.97949C20.6252 2.85299 20.522 2.75033 20.396 2.75033H17.1877C17.0612 2.75033 16.9585 2.64766 16.9585 2.52116C16.9585 2.39466 17.0612 2.29199 17.1877 2.29199H20.396C20.775 2.29199 21.0835 2.60045 21.0835 2.97949V5.27116C21.0835 5.39766 20.9808 5.50033 20.8543 5.50033Z" fill="black"/>
<path d="M16.0417 21.0837H1.37508C1.12208 21.0837 0.916748 20.8779 0.916748 20.6253V3.66699H16.5001V16.2712C16.5001 16.3977 16.3974 16.5003 16.2709 16.5003C16.1444 16.5003 16.0417 16.3977 16.0417 16.2712V4.12533H1.37508V20.6253H16.0417V18.1045C16.0417 17.978 16.1444 17.8753 16.2709 17.8753C16.3974 17.8753 16.5001 17.978 16.5001 18.1045V20.6253C16.5001 20.8779 16.2947 21.0837 16.0417 21.0837Z" fill="black"/>
<path d="M16.2709 4.12533H1.14591C1.01941 4.12533 0.916748 4.02266 0.916748 3.89616V1.60449C0.916748 1.22545 1.22521 0.916992 1.60425 0.916992H15.8126C16.1916 0.916992 16.5001 1.22545 16.5001 1.60449V3.89616C16.5001 4.02266 16.3974 4.12533 16.2709 4.12533ZM1.37508 3.66699H16.0417V1.60449C16.0417 1.47799 15.9386 1.37533 15.8126 1.37533H1.60425C1.47821 1.37533 1.37508 1.47799 1.37508 1.60449V3.66699Z" fill="black"/>
<path d="M7.5625 3.20898C7.18346 3.20898 6.875 2.90053 6.875 2.52148C6.875 2.14244 7.18346 1.83398 7.5625 1.83398C7.94154 1.83398 8.25 2.14244 8.25 2.52148C8.25 2.90053 7.94154 3.20898 7.5625 3.20898ZM7.5625 2.29232C7.43646 2.29232 7.33333 2.39498 7.33333 2.52148C7.33333 2.64798 7.43646 2.75065 7.5625 2.75065C7.68854 2.75065 7.79167 2.64798 7.79167 2.52148C7.79167 2.39498 7.68854 2.29232 7.5625 2.29232Z" fill="black"/>
<path d="M5.271 3.20898C4.89195 3.20898 4.5835 2.90053 4.5835 2.52148C4.5835 2.14244 4.89195 1.83398 5.271 1.83398C5.65004 1.83398 5.9585 2.14244 5.9585 2.52148C5.9585 2.90053 5.65004 3.20898 5.271 3.20898ZM5.271 2.29232C5.14495 2.29232 5.04183 2.39498 5.04183 2.52148C5.04183 2.64798 5.14495 2.75065 5.271 2.75065C5.39704 2.75065 5.50016 2.64798 5.50016 2.52148C5.50016 2.39498 5.39704 2.29232 5.271 2.29232Z" fill="black"/>
<path d="M2.97925 3.20898C2.60021 3.20898 2.29175 2.90053 2.29175 2.52148C2.29175 2.14244 2.60021 1.83398 2.97925 1.83398C3.35829 1.83398 3.66675 2.14244 3.66675 2.52148C3.66675 2.90053 3.35829 3.20898 2.97925 3.20898ZM2.97925 2.29232C2.85321 2.29232 2.75008 2.39498 2.75008 2.52148C2.75008 2.64798 2.85321 2.75065 2.97925 2.75065C3.10529 2.75065 3.20841 2.64798 3.20841 2.52148C3.20841 2.39498 3.10529 2.29232 2.97925 2.29232Z" fill="black"/>
<path d="M12.9003 16.0423C12.8443 16.0423 12.7884 16.0222 12.744 15.9809C12.6514 15.8947 12.6463 15.7499 12.7325 15.6569C13.684 14.6339 14.2083 13.3056 14.2083 11.9173C14.2083 8.88453 11.7411 6.41732 8.70833 6.41732C5.67554 6.41732 3.20833 8.88453 3.20833 11.9173C3.20833 13.3056 3.73267 14.6339 4.68417 15.6573C4.77033 15.7499 4.76529 15.8952 4.67271 15.9814C4.58012 16.0675 4.43483 16.0625 4.34867 15.9694C3.31742 14.8607 2.75 13.422 2.75 11.9173C2.75 8.63198 5.423 5.95898 8.70833 5.95898C11.9937 5.95898 14.6667 8.63198 14.6667 11.9173C14.6667 13.422 14.0993 14.8607 13.0685 15.969C13.0231 16.0176 12.9617 16.0423 12.9003 16.0423Z" fill="black"/>
<path d="M12.1746 15.1253C12.1215 15.1253 12.0683 15.107 12.0252 15.0694C11.929 14.9869 11.9189 14.8421 12.0009 14.7463C12.6857 13.9529 13.0624 12.9482 13.0624 11.917C13.0624 9.51624 11.109 7.56283 8.70825 7.56283C6.3075 7.56283 4.35409 9.51624 4.35409 11.917C4.35409 12.9482 4.73084 13.9534 5.41559 14.7463C5.49809 14.8421 5.48754 14.9869 5.39175 15.0694C5.29596 15.1519 5.15204 15.1418 5.06817 15.0456C4.31238 14.1697 3.89575 13.0582 3.89575 11.917C3.89575 9.26324 6.0545 7.10449 8.70825 7.10449C11.362 7.10449 13.5208 9.26324 13.5208 11.917C13.5208 13.0582 13.1046 14.1692 12.3483 15.046C12.303 15.0983 12.2393 15.1253 12.1746 15.1253Z" fill="black"/>
<path d="M6.88501 8.98881C6.80571 8.98881 6.72871 8.94756 6.68609 8.87423L6.29559 8.19727C6.23234 8.08773 6.26992 7.94748 6.37992 7.88423C6.48946 7.82098 6.62971 7.85856 6.69342 7.9681L7.08392 8.64506C7.14717 8.7546 7.10959 8.89485 6.99959 8.9581C6.96338 8.97919 6.92396 8.98881 6.88501 8.98881Z" fill="black"/>
<path d="M5.55091 10.3232C5.51195 10.3232 5.47253 10.3136 5.43632 10.2925L4.75936 9.90204C4.64982 9.83879 4.61224 9.69854 4.67549 9.58899C4.73874 9.47945 4.87899 9.44233 4.98853 9.50512L5.66549 9.89562C5.77503 9.95887 5.81261 10.0991 5.74936 10.2087C5.7072 10.2825 5.62974 10.3232 5.55091 10.3232Z" fill="black"/>
<path d="M12.5424 14.3601C12.5034 14.3601 12.464 14.3505 12.4278 14.3294L11.7508 13.9389C11.6413 13.8757 11.6037 13.7354 11.6669 13.6259C11.7297 13.5164 11.87 13.4797 11.98 13.542L12.6569 13.9325C12.7665 13.9958 12.8041 14.136 12.7408 14.2456C12.6987 14.3189 12.6212 14.3601 12.5424 14.3601Z" fill="black"/>
<path d="M5.06287 12.1468H4.28141C4.15491 12.1468 4.05225 12.0441 4.05225 11.9176C4.05225 11.7911 4.15491 11.6885 4.28141 11.6885H5.06287C5.18937 11.6885 5.29204 11.7911 5.29204 11.9176C5.29204 12.0441 5.18937 12.1468 5.06287 12.1468Z" fill="black"/>
<path d="M13.1354 12.1468H12.3539C12.2274 12.1468 12.1248 12.0441 12.1248 11.9176C12.1248 11.7911 12.2274 11.6885 12.3539 11.6885H13.1354C13.2619 11.6885 13.3645 11.7911 13.3645 11.9176C13.3645 12.0441 13.2623 12.1468 13.1354 12.1468Z" fill="black"/>
<path d="M4.8745 14.3606C4.7952 14.3606 4.7182 14.3193 4.67604 14.246C4.61233 14.1364 4.64991 13.9962 4.75991 13.9329L5.43687 13.5424C5.54641 13.4792 5.68666 13.5168 5.74991 13.6263C5.81362 13.7358 5.77604 13.8761 5.66604 13.9393L4.98908 14.3298C4.95287 14.3505 4.91345 14.3606 4.8745 14.3606Z" fill="black"/>
<path d="M11.8657 10.3234C11.7864 10.3234 11.7094 10.2822 11.6672 10.2089C11.6035 10.0993 11.6411 9.95907 11.7511 9.89582L12.4281 9.50532C12.5376 9.44207 12.6779 9.47966 12.7411 9.5892C12.8048 9.69874 12.7672 9.83899 12.6572 9.90224L11.9803 10.2927C11.9441 10.3138 11.9047 10.3234 11.8657 10.3234Z" fill="black"/>
<path d="M10.5316 8.98881C10.4926 8.98881 10.4532 8.97919 10.417 8.9581C10.3074 8.89485 10.2698 8.7546 10.3326 8.64506L10.7231 7.9681C10.7864 7.85856 10.9262 7.82098 11.0366 7.88423C11.1462 7.94748 11.1838 8.08773 11.121 8.19727L10.7305 8.87423C10.6874 8.94756 10.6104 8.98881 10.5316 8.98881Z" fill="black"/>
<path d="M8.70841 8.50053C8.58191 8.50053 8.47925 8.39787 8.47925 8.27137V7.48991C8.47925 7.36341 8.58191 7.26074 8.70841 7.26074C8.83491 7.26074 8.93758 7.36341 8.93758 7.48991V8.27137C8.93758 8.39833 8.83491 8.50053 8.70841 8.50053Z" fill="black"/>
<path d="M11.1131 13.0416L9.58823 12.1611C9.54607 12.3133 9.46907 12.4503 9.36182 12.5599L10.8839 13.439C10.9201 13.4596 10.9596 13.4697 10.9985 13.4697C11.0774 13.4697 11.1548 13.4289 11.197 13.3551C11.2602 13.2451 11.2226 13.1048 11.1131 13.0416Z" fill="black"/>
<path d="M8.70833 13.0632C8.07629 13.0632 7.5625 12.5489 7.5625 11.9173C7.5625 11.2857 8.07629 10.7715 8.70833 10.7715C9.34038 10.7715 9.85417 11.2857 9.85417 11.9173C9.85417 12.5489 9.34038 13.0632 8.70833 13.0632ZM8.70833 11.2298C8.32929 11.2298 8.02083 11.5383 8.02083 11.9173C8.02083 12.2964 8.32929 12.6048 8.70833 12.6048C9.08738 12.6048 9.39583 12.2964 9.39583 11.9173C9.39583 11.5383 9.08738 11.2298 8.70833 11.2298Z" fill="black"/>
<path d="M10.3125 15.1253H7.10417C6.97767 15.1253 6.875 15.0227 6.875 14.8962C6.875 14.7697 6.97767 14.667 7.10417 14.667H10.3125C10.439 14.667 10.5417 14.7697 10.5417 14.8962C10.5417 15.0227 10.439 15.1253 10.3125 15.1253Z" fill="black"/>
<path d="M18.1043 17.4173H8.93766C8.81116 17.4173 8.7085 17.3147 8.7085 17.1882C8.7085 17.0617 8.81116 16.959 8.93766 16.959H18.1043C18.2308 16.959 18.3335 17.0617 18.3335 17.1882C18.3335 17.3147 18.2308 17.4173 18.1043 17.4173Z" fill="black"/>
<path d="M17.646 17.6462L19.021 17.1878L17.646 16.7295V17.6462Z" fill="black"/>
<path d="M17.6459 17.8754C17.5982 17.8754 17.5515 17.8607 17.5121 17.8323C17.452 17.7892 17.4167 17.72 17.4167 17.6462V16.7295C17.4167 16.6558 17.452 16.5865 17.5121 16.5435C17.5712 16.5004 17.6482 16.488 17.7183 16.5123L19.0933 16.9706C19.1868 17.0018 19.2501 17.0893 19.2501 17.1879C19.2501 17.2864 19.1868 17.374 19.0933 17.4051L17.7183 17.8635C17.6945 17.8717 17.6702 17.8754 17.6459 17.8754ZM17.8751 17.0476V17.3281L18.2963 17.1879L17.8751 17.0476Z" fill="black"/>
</g>
<defs>
<clipPath id="clip0_358_2">
<rect width="22" height="22" fill="white"/>
</clipPath>
</defs>
</svg>
