<svg width="22" height="22" viewBox="0 0 22 22" fill="none" xmlns="http://www.w3.org/2000/svg">
<path d="M18.8243 16.5373H15.1143C15.0188 16.5373 14.929 16.4917 14.8746 16.4153C13.373 14.3131 12.8602 10.832 13.6278 7.94953C14.1771 5.88653 15.2889 4.40637 16.8418 3.66927C16.9226 3.63108 17.0165 3.63108 17.0972 3.66927C18.6501 4.40637 19.7614 5.88653 20.3112 7.94953C21.0788 10.832 20.566 14.3131 19.0644 16.4153C19.009 16.4917 18.9197 16.5373 18.8243 16.5373ZM15.2686 15.9659H18.6694C20.0142 13.9798 20.4579 10.77 19.7446 8.09338C19.401 6.8032 18.6415 5.10479 16.9687 4.24616C15.2965 5.10479 14.5365 6.8032 14.1929 8.09338C13.4806 10.77 13.9238 13.9798 15.2686 15.9659Z" fill="black"/>
<path d="M16.9693 7.75806C15.9378 7.75806 14.9585 7.27046 14.3508 6.45449C14.2853 6.36669 14.2767 6.24963 14.3285 6.1534C14.9478 5.0026 15.7936 4.16629 16.8419 3.66927C16.9226 3.63108 17.0166 3.63108 17.0973 3.66927C18.1456 4.16679 18.9914 5.0026 19.6107 6.1534C19.6625 6.24963 19.6539 6.36669 19.5884 6.45449C18.9802 7.27096 18.0009 7.75806 16.9693 7.75806ZM14.9352 6.25806C15.4367 6.84239 16.1845 7.18663 16.9688 7.18663C17.7532 7.18663 18.501 6.84239 19.0025 6.25806C18.4786 5.34685 17.7958 4.67125 16.9688 4.24616C16.1419 4.67125 15.4591 5.34685 14.9352 6.25806Z" fill="black"/>
<path d="M19.5797 18.3582H14.3584C14.261 18.3582 14.1701 18.3111 14.1158 18.2322C14.0615 18.1533 14.0508 18.0531 14.0874 17.9653L14.8433 16.1444C14.8879 16.0368 14.9951 15.9658 15.1144 15.9658H18.8243C18.9436 15.9658 19.0508 16.0363 19.0954 16.1444L19.8508 17.9653C19.8874 18.0536 19.8767 18.1533 19.8224 18.2322C19.7681 18.3111 19.6772 18.3582 19.5797 18.3582ZM14.7925 17.7872H19.1457L18.6274 16.5377H15.3113L14.7925 17.7872Z" fill="black"/>
<path d="M14.913 22H2.36824C1.06253 22 0 20.9618 0 19.686V2.31399C0 1.03819 1.06253 0 2.36824 0H14.913C16.2188 0 17.2813 1.03819 17.2813 2.31399V3.93651C17.2813 4.03522 17.229 4.12698 17.1432 4.17907C17.1061 4.20188 17.0645 4.21577 17.0224 4.22024C15.3131 5.06994 14.5409 6.79068 14.1942 8.09425C13.4667 10.8264 13.9434 14.1141 15.3547 16.0888C15.4116 16.1682 15.4232 16.2698 15.3862 16.3596L14.7927 17.7877H16.9884C17.1498 17.7877 17.2808 17.9157 17.2808 18.0734V19.6865C17.2808 20.9618 16.2188 22 14.913 22ZM2.36824 0.571429C1.3849 0.571429 0.584825 1.35317 0.584825 2.31399V19.686C0.584825 20.6468 1.3849 21.4286 2.36824 21.4286H14.913C15.8964 21.4286 16.6965 20.6468 16.6965 19.686V18.3586H14.3592C14.2617 18.3586 14.1708 18.3115 14.1165 18.2326C14.0622 18.1538 14.0515 18.0536 14.0881 17.9658L14.7851 16.2867C13.353 14.1731 12.8763 10.7743 13.6282 7.9504C14.1602 5.95238 15.2197 4.50099 16.6965 3.74206V2.31399C16.6965 1.35317 15.8964 0.571429 14.913 0.571429H2.36824Z" fill="black"/>
<path d="M5.1093 9.54348C3.31878 9.54348 1.8623 8.12037 1.8623 6.37086C1.8623 4.62136 3.31878 3.19824 5.1093 3.19824C5.27074 3.19824 5.40172 3.32622 5.40172 3.48396V6.08515H8.06389C8.22533 6.08515 8.3563 6.21312 8.3563 6.37086C8.3563 8.12037 6.89982 9.54348 5.1093 9.54348ZM4.81689 3.78554C3.4858 3.9284 2.44713 5.03356 2.44713 6.37136C2.44713 7.80588 3.64115 8.97255 5.1093 8.97255C6.47847 8.97255 7.60953 7.95767 7.75574 6.65707H5.1093C4.94787 6.65707 4.81689 6.5291 4.81689 6.37136V3.78554Z" fill="black"/>
<path d="M9.09759 5.64681H6.143C5.98156 5.64681 5.85059 5.51883 5.85059 5.3611V2.47419C5.85059 2.31645 5.98156 2.18848 6.143 2.18848C7.01008 2.18848 7.82589 2.51834 8.43915 3.11754C9.0524 3.71675 9.39 4.51338 9.39 5.3611C9.39 5.51883 9.25902 5.64681 9.09759 5.64681ZM6.43541 5.07538H8.78943C8.72445 4.48858 8.45895 3.94493 8.02541 3.52181C7.59237 3.0987 7.03597 2.83877 6.43541 2.77528V5.07538Z" fill="black"/>
<path d="M16.9692 13.6828C15.9264 13.6828 15.0776 12.8539 15.0776 11.8345C15.0776 10.8152 15.9259 9.98633 16.9692 9.98633C18.0124 9.98633 18.8607 10.8152 18.8607 11.8345C18.8607 12.8539 18.0119 13.6828 16.9692 13.6828ZM16.9692 10.5578C16.2488 10.5578 15.6625 11.1307 15.6625 11.8345C15.6625 12.5384 16.2488 13.1113 16.9692 13.1113C17.6896 13.1113 18.2759 12.5384 18.2759 11.8345C18.2759 11.1307 17.6896 10.5578 16.9692 10.5578Z" fill="black"/>
<path d="M21.5914 16.8138C21.4832 16.8138 21.3822 16.7553 21.3314 16.6585C21.3233 16.6432 20.5126 15.1094 19.6937 14.0911C19.5942 13.9671 19.616 13.7875 19.743 13.6898C19.8699 13.5921 20.0536 13.6139 20.1537 13.7379C20.6212 14.3192 21.0756 15.042 21.3969 15.5871C21.536 13.2761 20.808 11.6734 20.1278 10.7012C20.0369 10.5707 20.0709 10.3932 20.2039 10.3039C20.3369 10.2146 20.5192 10.2483 20.6106 10.3783C21.435 11.5559 22.3244 13.5861 21.8817 16.5683C21.8635 16.6913 21.766 16.7885 21.6406 16.8088C21.6233 16.8128 21.6071 16.8138 21.5914 16.8138Z" fill="black"/>
<path d="M12.3477 16.8139C12.332 16.8139 12.3158 16.8124 12.2995 16.8099C12.1741 16.7896 12.0767 16.6919 12.0584 16.5694C11.6152 13.5872 12.5051 11.5575 13.3291 10.3794C13.4204 10.2489 13.6022 10.2157 13.7357 10.305C13.8692 10.3943 13.9032 10.5718 13.8118 10.7023C13.1311 11.6745 12.4036 13.2772 12.5427 15.5882C12.8635 15.0426 13.3184 14.3204 13.786 13.739C13.8855 13.615 14.0697 13.5932 14.1967 13.6909C14.3236 13.7886 14.3459 13.9682 14.2459 14.0922C13.426 15.1115 12.6163 16.6443 12.6082 16.6596C12.5574 16.7554 12.4564 16.8139 12.3477 16.8139Z" fill="black"/>
<path d="M11.0849 11.2365H2.64153C2.4801 11.2365 2.34912 11.1085 2.34912 10.9508C2.34912 10.793 2.4801 10.665 2.64153 10.665H11.0849C11.2464 10.665 11.3774 10.793 11.3774 10.9508C11.3774 11.1085 11.2464 11.2365 11.0849 11.2365Z" fill="black"/>
<path d="M11.0849 12.9298H2.64153C2.4801 12.9298 2.34912 12.8019 2.34912 12.6441C2.34912 12.4864 2.4801 12.3584 2.64153 12.3584H11.0849C11.2464 12.3584 11.3774 12.4864 11.3774 12.6441C11.3774 12.8019 11.2464 12.9298 11.0849 12.9298Z" fill="black"/>
<path d="M11.0849 14.6232H2.64153C2.4801 14.6232 2.34912 14.4952 2.34912 14.3375C2.34912 14.1797 2.4801 14.0518 2.64153 14.0518H11.0849C11.2464 14.0518 11.3774 14.1797 11.3774 14.3375C11.3774 14.4952 11.2464 14.6232 11.0849 14.6232Z" fill="black"/>
<path d="M11.0849 16.3165H2.64153C2.4801 16.3165 2.34912 16.1886 2.34912 16.0308C2.34912 15.8731 2.4801 15.7451 2.64153 15.7451H11.0849C11.2464 15.7451 11.3774 15.8731 11.3774 16.0308C11.3774 16.1886 11.2464 16.3165 11.0849 16.3165Z" fill="black"/>
<path d="M11.0849 18.0099H2.64153C2.4801 18.0099 2.34912 17.8819 2.34912 17.7242C2.34912 17.5665 2.4801 17.4385 2.64153 17.4385H11.0849C11.2464 17.4385 11.3774 17.5665 11.3774 17.7242C11.3774 17.8819 11.2464 18.0099 11.0849 18.0099Z" fill="black"/>
<path d="M11.0849 19.7023H2.64153C2.4801 19.7023 2.34912 19.5743 2.34912 19.4166C2.34912 19.2588 2.4801 19.1309 2.64153 19.1309H11.0849C11.2464 19.1309 11.3774 19.2588 11.3774 19.4166C11.3774 19.5743 11.2464 19.7023 11.0849 19.7023Z" fill="black"/>
</svg>
