<svg width="749" height="1047" viewBox="0 0 749 1047" fill="none" xmlns="http://www.w3.org/2000/svg">
<mask id="path-1-inside-1_291_5" fill="white">
<path d="M374 42C374 65.196 392.804 84 416 84H719C735.569 84 749 97.4315 749 114V1005C749 1028.2 730.196 1047 707 1047H42C18.804 1047 0 1028.2 0 1005V42C1.58509e-05 18.8041 18.8041 7.8922e-07 42 0H344C360.569 0 374 13.4315 374 30V42Z"/>
</mask>
<path d="M749 1005H749.5V1005H749ZM707 1047V1047.5V1047.5V1047ZM0 42H-0.5V42H0ZM42 0V-0.5V-0.5V0ZM374 42H373.5C373.5 65.4721 392.528 84.5 416 84.5V84V83.5C393.08 83.5 374.5 64.9198 374.5 42H374ZM416 84V84.5H719V84V83.5H416V84ZM749 114H748.5V1005H749H749.5V114H749ZM749 1005H748.5C748.5 1027.92 729.92 1046.5 707 1046.5V1047V1047.5C730.472 1047.5 749.5 1028.47 749.5 1005H749ZM707 1047V1046.5H42V1047V1047.5H707V1047ZM42 1047V1046.5C19.0802 1046.5 0.5 1027.92 0.5 1005H0H-0.5C-0.5 1028.47 18.5279 1047.5 42 1047.5V1047ZM0 1005H0.5V42H0H-0.5V1005H0ZM0 42H0.5C0.500016 19.0802 19.0802 0.500001 42 0.5V0V-0.5C18.5279 -0.499999 -0.499984 18.5279 -0.5 42H0ZM42 0V0.5H344V0V-0.5H42V0ZM374 30H373.5V42H374H374.5V30H374ZM344 0V0.5C360.292 0.5 373.5 13.7076 373.5 30H374H374.5C374.5 13.1553 360.845 -0.5 344 -0.5V0ZM719 84V84.5C735.292 84.5 748.5 97.7076 748.5 114H749H749.5C749.5 97.1553 735.845 83.5 719 83.5V84Z" fill="black" mask="url(#path-1-inside-1_291_5)"/>
</svg>
