<svg width="22" height="22" viewBox="0 0 22 22" fill="none" xmlns="http://www.w3.org/2000/svg">
<g clip-path="url(#clip0_291_47)">
<path d="M21.6699 18.0636H21.0545V8.54446C21.0545 7.37696 20.109 6.42642 18.9435 6.42642H16.7363V2.43832C16.7363 1.80808 16.2241 1.29493 15.5949 1.29493H14.9142V0.334064C14.9142 0.14809 14.7663 0 14.5807 0C14.395 0 14.2472 0.14809 14.2472 0.334064V1.29493H13.5665C12.9373 1.29493 12.425 1.80808 12.425 2.43832V3.03068H7.19923C6.52538 3.03068 5.89966 3.36819 5.52491 3.92956L5.01952 4.69067C4.9095 4.85598 4.89919 5.06606 4.99202 5.23826C5.08484 5.4139 5.26706 5.52066 5.46303 5.52066H7.08234V6.42987H3.05984C1.89779 6.42987 0.948896 7.3804 0.948896 8.5479V18.067H0.333489C0.147835 18.0636 0 18.2116 0 18.3976V19.6271C0 20.9358 1.06235 22 2.3688 22H19.6311C20.9376 22 21.9999 20.9358 21.9999 19.6271V18.3976C22.0034 18.2116 21.8555 18.0636 21.6699 18.0636ZM13.5733 1.96306H15.5983C15.8596 1.96306 16.0728 2.17658 16.0728 2.43832V6.42642H13.0989V5.19004V5.1866V5.18316V3.37163V3.36819V3.36475V2.44521C13.0989 2.17658 13.312 1.96306 13.5733 1.96306ZM6.07843 4.29806C6.32941 3.92267 6.74541 3.69881 7.19923 3.69881H12.4353V4.85254H5.71056L6.07843 4.29806ZM7.74932 5.51722H12.4319V6.42642H7.74932V5.51722ZM1.61587 8.54446C1.61587 7.74546 2.26222 7.09455 3.05984 7.09455H7.08234V8.13807H7.0789C6.81073 8.13807 6.57007 8.32404 6.50819 8.58234L6.3466 9.24358C6.16438 9.30213 5.98905 9.37445 5.82058 9.46055L5.24299 9.11271C5.00921 8.96462 4.7101 8.99906 4.51413 9.19537L4.03624 9.67408C3.84715 9.86349 3.80934 10.17 3.95029 10.3939L4.30441 10.9793C4.21846 11.1481 4.14282 11.3237 4.08438 11.5063L3.42771 11.6681C3.16299 11.7301 2.97733 11.9643 2.97733 12.2398V12.9148C2.97733 13.18 3.15955 13.4142 3.42428 13.4865L4.08438 13.6518C4.14282 13.8344 4.21502 14.01 4.30097 14.1753L3.94686 14.7608C3.8059 14.995 3.84715 15.2981 4.03281 15.4806L4.51069 15.9593C4.70666 16.1556 5.00577 16.19 5.23268 16.0454L5.81714 15.6941C5.98561 15.7802 6.16095 15.8525 6.34316 15.9111L6.50475 16.5689C6.56663 16.8341 6.80386 17.02 7.07546 17.02H7.74932C8.01404 17.02 8.25127 16.8375 8.32003 16.5723L8.48505 15.9076C8.66383 15.8491 8.83917 15.7768 9.00763 15.6907L9.58522 16.0385C9.81901 16.1866 10.1181 16.1522 10.3141 15.9559L10.7817 15.484C10.9776 15.2946 11.0154 14.9881 10.8745 14.7608L10.5238 14.1753C10.6098 14.0066 10.6854 13.8309 10.7438 13.6518L11.4108 13.4865C11.6721 13.4177 11.8509 13.1835 11.8509 12.9148V12.2398C11.8509 11.9643 11.6652 11.7301 11.4039 11.6681L10.7438 11.5028C10.6854 11.3237 10.6132 11.1481 10.5238 10.9793L10.8676 10.4008C11.0154 10.1734 10.9811 9.86694 10.7885 9.67063L10.3141 9.19192C10.1181 8.99562 9.81901 8.96118 9.5921 9.10582L9.00763 9.45711C8.83917 9.37101 8.66383 9.29868 8.48505 9.24014L8.32003 8.56857C8.25127 8.31027 8.01748 8.13118 7.75275 8.13118H7.74932V7.08766H18.947C19.7446 7.08766 20.3909 7.73857 20.3909 8.53757V18.0567H1.61587V8.54446ZM10.2728 10.1046L9.85339 10.8071C9.7915 10.9139 9.7915 11.0448 9.85339 11.1481C9.98747 11.3754 10.0906 11.6199 10.1525 11.8679C10.1834 11.9884 10.2763 12.078 10.3966 12.109L11.1839 12.3053V12.8563L10.3966 13.0526C10.2797 13.0836 10.1834 13.1731 10.1559 13.2937C10.0906 13.5416 9.99091 13.7862 9.85339 14.0169C9.7915 14.1237 9.7915 14.2545 9.85339 14.3579L10.2728 15.057L9.88777 15.4461L9.19329 15.026C9.09015 14.964 8.9595 14.9606 8.85292 15.0225C8.62601 15.1534 8.37847 15.2567 8.12406 15.3256C8.00717 15.3566 7.91778 15.4496 7.88684 15.5667L7.69087 16.3554H7.14078L6.94825 15.5667C6.92075 15.4461 6.82792 15.3532 6.70759 15.3222C6.44974 15.2533 6.20564 15.1534 5.98217 15.0191C5.87559 14.9571 5.74494 14.9571 5.6418 15.0191L4.94045 15.4393L4.55195 15.0501L4.97483 14.351C5.04015 14.2442 5.04015 14.1099 4.97483 14.0031C4.84418 13.7862 4.74104 13.5451 4.67572 13.2868C4.64478 13.1662 4.55195 13.0733 4.43162 13.0457L3.64431 12.8494V12.2984L4.43162 12.1021C4.55195 12.0711 4.64478 11.9781 4.67572 11.861C4.74104 11.6027 4.84074 11.3616 4.97483 11.1378C5.03671 11.031 5.03671 10.9001 4.97483 10.7934L4.55195 10.0942L4.94045 9.70507L5.6418 10.1252C5.74838 10.1872 5.87903 10.1872 5.98217 10.1252C6.20564 9.99092 6.44974 9.89105 6.70415 9.82905C6.82449 9.79806 6.91731 9.70507 6.94825 9.58453L7.14078 8.79587H7.69087L7.88684 9.58453C7.91778 9.70507 8.00717 9.79806 8.1275 9.82905C8.37847 9.89449 8.62257 9.99436 8.85292 10.1287C8.9595 10.1907 9.08671 10.1872 9.19329 10.1252L9.88777 9.70507L10.2728 10.1046ZM13.0026 18.7317L12.7035 19.634C12.6898 19.6719 12.6554 19.6994 12.6141 19.6994H9.39269C9.35144 19.6994 9.31706 19.6719 9.3033 19.634L9.0042 18.7317H13.0026ZM21.3364 19.6271C21.3364 20.5673 20.5732 21.3353 19.6311 21.3353H2.3688C1.43022 21.3353 0.666977 20.5708 0.666977 19.6271V18.7317H1.27895H1.28582C1.28582 18.7317 1.28926 18.7317 1.2927 18.7317H8.30284L8.67414 19.8441C8.77729 20.1575 9.06952 20.3641 9.39613 20.3641H12.6176C12.9476 20.3641 13.2364 20.154 13.3395 19.8441L13.7109 18.7317H20.721H20.7279H20.7347H21.3433V19.6271H21.3364Z" fill="black"/>
<path d="M13.7864 13.3691H13.147C12.9613 13.3691 12.8135 13.5172 12.8135 13.7032C12.8135 13.8892 12.9613 14.0373 13.147 14.0373H13.7864C13.9721 14.0373 14.1199 13.8892 14.1199 13.7032C14.1199 13.5207 13.9687 13.3691 13.7864 13.3691Z" fill="black"/>
<path d="M19.1778 13.3691H15.2378C15.0521 13.3691 14.9043 13.5172 14.9043 13.7032C14.9043 13.8892 15.0521 14.0373 15.2378 14.0373H19.1743C19.36 14.0373 19.5078 13.8892 19.5078 13.7032C19.5113 13.5207 19.36 13.3691 19.1778 13.3691Z" fill="black"/>
<path d="M13.7864 15.1641H13.147C12.9613 15.1641 12.8135 15.3122 12.8135 15.4981C12.8135 15.6841 12.9613 15.8322 13.147 15.8322H13.7864C13.9721 15.8322 14.1199 15.6841 14.1199 15.4981C14.1199 15.3122 13.9687 15.1641 13.7864 15.1641Z" fill="black"/>
<path d="M18.167 15.1641H15.2378C15.0521 15.1641 14.9043 15.3122 14.9043 15.4981C14.9043 15.6841 15.0521 15.8322 15.2378 15.8322H18.167C18.3526 15.8322 18.5005 15.6841 18.5005 15.4981C18.5005 15.3122 18.3492 15.1641 18.167 15.1641Z" fill="black"/>
<path d="M13.7864 9.78125H13.147C12.9613 9.78125 12.8135 9.92934 12.8135 10.1153C12.8135 10.3013 12.9613 10.4494 13.147 10.4494H13.7864C13.9721 10.4494 14.1199 10.3013 14.1199 10.1153C14.1199 9.92934 13.9687 9.78125 13.7864 9.78125Z" fill="black"/>
<path d="M13.7864 11.5752H13.147C12.9613 11.5752 12.8135 11.7233 12.8135 11.9093C12.8135 12.0952 12.9613 12.2433 13.147 12.2433H13.7864C13.9721 12.2433 14.1199 12.0952 14.1199 11.9093C14.1199 11.7233 13.9687 11.5752 13.7864 11.5752Z" fill="black"/>
<path d="M15.2378 10.4494H16.0182C16.2039 10.4494 16.3517 10.3013 16.3517 10.1153C16.3517 9.92934 16.2039 9.78125 16.0182 9.78125H15.2378C15.0521 9.78125 14.9043 9.92934 14.9043 10.1153C14.9043 10.3013 15.0556 10.4494 15.2378 10.4494Z" fill="black"/>
<path d="M17.0767 10.4494H18.7235C18.9091 10.4494 19.057 10.3013 19.057 10.1153C19.057 9.92934 18.9091 9.78125 18.7235 9.78125H17.0767C16.891 9.78125 16.7432 9.92934 16.7432 10.1153C16.7432 10.3013 16.891 10.4494 17.0767 10.4494Z" fill="black"/>
<path d="M15.2378 12.2433H16.9809C17.1665 12.2433 17.3144 12.0952 17.3144 11.9093C17.3144 11.7233 17.1665 11.5752 16.9809 11.5752H15.2378C15.0521 11.5752 14.9043 11.7233 14.9043 11.9093C14.9043 12.0952 15.0556 12.2433 15.2378 12.2433Z" fill="black"/>
<path d="M7.06192 10.8346C6.35713 10.9723 5.79673 11.5371 5.66609 12.2432C5.55951 12.8286 5.74172 13.4279 6.15772 13.8446C6.49465 14.1787 6.94847 14.3646 7.41948 14.3646C7.5295 14.3646 7.64295 14.3543 7.75641 14.3336C8.45776 14.1993 9.0216 13.638 9.15912 12.9388C9.27258 12.3465 9.09036 11.7438 8.66748 11.3236C8.25148 10.9 7.65327 10.7175 7.06192 10.8346ZM8.5059 12.808C8.42338 13.2385 8.06239 13.5932 7.63607 13.6758C7.26133 13.7482 6.8969 13.6345 6.63217 13.3728C6.36744 13.1076 6.25399 12.7425 6.32275 12.3637C6.40182 11.9332 6.75594 11.575 7.18913 11.4889C7.26477 11.4752 7.3404 11.4683 7.41604 11.4683C7.70827 11.4683 7.98675 11.5819 8.19647 11.792C8.46808 12.0572 8.57809 12.4291 8.5059 12.808Z" fill="black"/>
</g>
<defs>
<clipPath id="clip0_291_47">
<rect width="22" height="22" fill="white"/>
</clipPath>
</defs>
</svg>
