<svg width="52" height="52" viewBox="0 0 52 52" fill="none" xmlns="http://www.w3.org/2000/svg">
<g clip-path="url(#clip0_863_10187)">
<path d="M48.6572 45.7591H3.34261C2.05963 45.7591 1.01953 44.719 1.01953 43.436V7.79378C1.01953 6.5107 2.05963 5.4707 3.34261 5.4707H48.6571C49.9401 5.4707 50.9802 6.51081 50.9802 7.79378V43.436C50.9803 44.719 49.9402 45.7591 48.6572 45.7591Z" fill="url(#paint0_linear_863_10187)"/>
<path d="M15.1693 15.834H4.39637C3.85486 15.834 3.41602 16.2729 3.41602 16.8143C3.41602 17.3557 3.85496 17.7947 4.39637 17.7947H15.1692C15.7107 17.7947 16.1496 17.3557 16.1496 16.8143C16.1497 16.2729 15.7108 15.834 15.1693 15.834Z" fill="white"/>
<path d="M11.2349 20.3593C11.2349 19.8178 10.7959 19.3789 10.2545 19.3789H4.39637C3.85486 19.3789 3.41602 19.8178 3.41602 20.3593C3.41602 20.9008 3.85496 21.3396 4.39637 21.3396H10.2544C10.7959 21.3396 11.2349 20.9008 11.2349 20.3593Z" fill="white"/>
<path d="M6.29957 39.9646C6.84108 39.9646 7.27992 39.5257 7.27992 38.9843C7.27992 38.4427 6.84098 38.0039 6.29957 38.0039H4.39637C3.85496 38.0039 3.41602 38.4428 3.41602 38.9843C3.41602 39.5257 3.85496 39.9646 4.39637 39.9646H6.29957Z" fill="white"/>
<path d="M48.6581 5.4707H31.3027V45.7592H48.6581C49.9411 45.7592 50.9812 44.7191 50.9812 43.4361V7.79388C50.9812 6.51081 49.9411 5.4707 48.6581 5.4707Z" fill="url(#paint1_linear_863_10187)"/>
<path d="M48.6572 5.4707H3.34261C2.05963 5.4707 1.01953 6.51081 1.01953 7.79388V23.3498H50.9803V7.79388C50.9803 6.51081 49.9402 5.4707 48.6572 5.4707Z" fill="url(#paint2_linear_863_10187)"/>
<path d="M1.01953 27.4277V43.4356C1.01953 44.7185 2.05963 45.7587 3.34261 45.7587H48.6571C49.9402 45.7587 50.9803 44.7185 50.9803 43.4356V27.4277H1.01953Z" fill="url(#paint3_linear_863_10187)"/>
<path d="M49.8267 45.4432L27.6824 23.2988H24.5703V35.5772L34.7523 45.7592H48.6573C49.0838 45.7592 49.4831 45.6437 49.8267 45.4432Z" fill="url(#paint4_linear_863_10187)"/>
<path d="M44.8202 38.0039H39.5605V45.7601H48.6571C49.7189 45.7601 50.6137 45.0475 50.8908 44.0746L44.8202 38.0039Z" fill="url(#paint5_linear_863_10187)"/>
<path d="M25.9995 27.9062C18.2263 27.9062 11.3524 31.8946 7.17904 38.0038C6.38824 39.1615 6.38824 40.7463 7.17904 41.9039C11.3524 48.0132 18.2263 52.0016 25.9995 52.0016C33.7727 52.0016 40.6466 48.0132 44.8199 41.904C45.6107 40.7464 45.6107 39.1616 44.8199 38.0039C40.6466 31.8947 33.7727 27.9062 25.9995 27.9062Z" fill="url(#paint6_linear_863_10187)"/>
<path d="M45.2847 40.9022C45.1858 41.256 45.0318 41.5955 44.8207 41.9044C42.9385 44.6574 40.5078 46.9811 37.6937 48.7022L24.5703 35.5778V27.9511C25.0434 27.9215 25.5196 27.9062 25.9998 27.9062C28.6742 27.9062 31.2416 28.3783 33.6285 29.246C38.1831 30.9008 42.0821 33.9964 44.8207 38.0034C45.3999 38.8528 45.5549 39.9305 45.2847 40.9022Z" fill="url(#paint7_linear_863_10187)"/>
<path d="M42.5137 35.1348H9.48529C8.64758 36.0269 7.87503 36.985 7.17904 38.0037C6.38824 39.1614 6.38824 40.7462 7.17904 41.9038C11.3524 48.0131 18.2263 52.0015 25.9995 52.0015C33.7727 52.0015 40.6466 48.0131 44.8199 41.9039C45.6107 40.7463 45.6107 39.1615 44.8199 38.0038C44.124 36.985 43.3515 36.0269 42.5137 35.1348Z" fill="url(#paint8_linear_863_10187)"/>
<path d="M49.8268 0H2.17319C0.97291 0 0 0.97291 0 2.17319V9.1678C0 10.368 0.97291 11.341 2.17319 11.341H49.8269C51.0271 11.341 52.0001 10.3681 52.0001 9.1678V2.17319C52 0.97291 51.0271 0 49.8268 0Z" fill="url(#paint9_linear_863_10187)"/>
<path d="M48.6572 5.4707H3.34261C2.05963 5.4707 1.01953 6.51081 1.01953 7.79388V11.008C1.35406 11.2182 1.74875 11.3418 2.17312 11.3418H49.8268C50.2512 11.3418 50.6458 11.2183 50.9804 11.008V7.79388C50.9803 6.51081 49.9402 5.4707 48.6572 5.4707Z" fill="url(#paint10_linear_863_10187)"/>
<path d="M48.6581 5.4707H31.3027V11.3417H49.8276C50.2519 11.3417 50.6465 11.2182 50.9812 11.0079V7.79388C50.9812 6.51081 49.9411 5.4707 48.6581 5.4707Z" fill="url(#paint11_linear_863_10187)"/>
<path d="M0 2.97852V9.16845C0 10.3686 0.97291 11.3416 2.17319 11.3416H49.8269C51.0271 11.3416 52.0001 10.3687 52.0001 9.16845V2.97852H0Z" fill="url(#paint12_linear_863_10187)"/>
<path d="M49.8267 0H35.7969V11.3409H49.8268C51.027 11.3409 52 10.368 52 9.1677V2.17319C51.9999 0.97291 51.027 0 49.8267 0Z" fill="url(#paint13_linear_863_10187)"/>
<path d="M23.8592 6.43566H4.18072C3.7584 6.43566 3.41602 6.09328 3.41602 5.67096C3.41602 5.24863 3.7584 4.90625 4.18072 4.90625H23.8592C24.2815 4.90625 24.6239 5.24863 24.6239 5.67096C24.6239 6.09328 24.2815 6.43566 23.8592 6.43566Z" fill="url(#paint14_linear_863_10187)"/>
<path d="M30.8257 8.57719C32.4305 8.57719 33.7315 7.27622 33.7315 5.67141C33.7315 4.06659 32.4305 2.76562 30.8257 2.76562C29.2209 2.76562 27.9199 4.06659 27.9199 5.67141C27.9199 7.27622 29.2209 8.57719 30.8257 8.57719Z" fill="url(#paint15_linear_863_10187)"/>
<path d="M38.6773 8.57719C40.2821 8.57719 41.583 7.27622 41.583 5.67141C41.583 4.06659 40.2821 2.76562 38.6773 2.76562C37.0724 2.76562 35.7715 4.06659 35.7715 5.67141C35.7715 7.27622 37.0724 8.57719 38.6773 8.57719Z" fill="url(#paint16_linear_863_10187)"/>
<path d="M46.5269 8.57719C48.1317 8.57719 49.4327 7.27622 49.4327 5.67141C49.4327 4.06659 48.1317 2.76562 46.5269 2.76562C44.9221 2.76562 43.6211 4.06659 43.6211 5.67141C43.6211 7.27622 44.9221 8.57719 46.5269 8.57719Z" fill="url(#paint17_linear_863_10187)"/>
<path d="M26.0008 49.2457C31.153 49.2457 35.3297 45.069 35.3297 39.9168C35.3297 34.7646 31.153 30.5879 26.0008 30.5879C20.8486 30.5879 16.6719 34.7646 16.6719 39.9168C16.6719 45.069 20.8486 49.2457 26.0008 49.2457Z" fill="url(#paint18_linear_863_10187)"/>
<path d="M26.0001 45.5744C29.1251 45.5744 31.6584 43.0411 31.6584 39.9161C31.6584 36.7911 29.1251 34.2578 26.0001 34.2578C22.8751 34.2578 20.3418 36.7911 20.3418 39.9161C20.3418 43.0411 22.8751 45.5744 26.0001 45.5744Z" fill="url(#paint19_linear_863_10187)"/>
<path d="M35.3289 39.9168C35.3289 34.7645 31.1522 30.5879 26 30.5879C25.5139 30.5879 25.0364 30.6252 24.5703 30.6969V35.5763L33.8899 44.8959C34.8011 43.455 35.3289 41.7477 35.3289 39.9168Z" fill="url(#paint20_linear_863_10187)"/>
<path d="M27.5634 38.0781L24.4395 41.2021L31.02 47.7826C32.2762 46.9795 33.3269 45.8835 34.0765 44.5912L27.5634 38.0781Z" fill="url(#paint21_linear_863_10187)"/>
<path d="M26.0008 22.5195C24.7469 22.5195 23.7305 23.536 23.7305 24.7899V33.8713C23.7305 35.1252 24.7469 36.1417 26.0008 36.1417C27.2547 36.1417 28.2712 35.1252 28.2712 33.8713V24.7899C28.2712 23.536 27.2547 22.5195 26.0008 22.5195Z" fill="url(#paint22_linear_863_10187)"/>
<path d="M26 41.8476C27.22 41.8476 28.209 40.8587 28.209 39.6387C28.209 38.4187 27.22 37.4297 26 37.4297C24.78 37.4297 23.791 38.4187 23.791 39.6387C23.791 40.8587 24.78 41.8476 26 41.8476Z" fill="url(#paint23_linear_863_10187)"/>
</g>
<defs>
<linearGradient id="paint0_linear_863_10187" x1="15.398" y1="3.65386" x2="37.4716" y2="49.3778" gradientUnits="userSpaceOnUse">
<stop stop-color="#EAF6FF"/>
<stop offset="1" stop-color="#B3DAFE"/>
</linearGradient>
<linearGradient id="paint1_linear_863_10187" x1="47.4125" y1="25.615" x2="51.491" y2="25.615" gradientUnits="userSpaceOnUse">
<stop stop-color="#7BACDF" stop-opacity="0"/>
<stop offset="1" stop-color="#7BACDF"/>
</linearGradient>
<linearGradient id="paint2_linear_863_10187" x1="25.9999" y1="14.7851" x2="25.9999" y2="10.8087" gradientUnits="userSpaceOnUse">
<stop stop-color="#7BACDF" stop-opacity="0"/>
<stop offset="1" stop-color="#7BACDF"/>
</linearGradient>
<linearGradient id="paint3_linear_863_10187" x1="25.9999" y1="42.416" x2="25.9999" y2="46.194" gradientUnits="userSpaceOnUse">
<stop stop-color="#7BACDF" stop-opacity="0"/>
<stop offset="1" stop-color="#7BACDF"/>
</linearGradient>
<linearGradient id="paint4_linear_863_10187" x1="32.5496" y1="35.0914" x2="23.1811" y2="31.1369" gradientUnits="userSpaceOnUse">
<stop stop-color="#7BACDF" stop-opacity="0"/>
<stop offset="1" stop-color="#7BACDF"/>
</linearGradient>
<linearGradient id="paint5_linear_863_10187" x1="50.1806" y1="48.2191" x2="42.2956" y2="41.9654" gradientUnits="userSpaceOnUse">
<stop stop-color="#7BACDF" stop-opacity="0"/>
<stop offset="1" stop-color="#7BACDF"/>
</linearGradient>
<linearGradient id="paint6_linear_863_10187" x1="21.1978" y1="30.7036" x2="32.0703" y2="51.6492" gradientUnits="userSpaceOnUse">
<stop stop-color="#AEFFD1"/>
<stop offset="1" stop-color="#57BE92"/>
</linearGradient>
<linearGradient id="paint7_linear_863_10187" x1="32.1672" y1="34.5561" x2="26.0496" y2="28.9143" gradientUnits="userSpaceOnUse">
<stop stop-color="#09A76D" stop-opacity="0"/>
<stop offset="0.4498" stop-color="#07A069" stop-opacity="0.45"/>
<stop offset="1" stop-color="#02905D"/>
</linearGradient>
<linearGradient id="paint8_linear_863_10187" x1="25.9995" y1="44.5364" x2="25.9995" y2="51.5767" gradientUnits="userSpaceOnUse">
<stop stop-color="#09A76D" stop-opacity="0"/>
<stop offset="0.4498" stop-color="#07A069" stop-opacity="0.45"/>
<stop offset="1" stop-color="#02905D"/>
</linearGradient>
<linearGradient id="paint9_linear_863_10187" x1="25.0302" y1="-1.04948" x2="27.1712" y2="13.7851" gradientUnits="userSpaceOnUse">
<stop stop-color="#BEC6ED"/>
<stop offset="1" stop-color="#925CB4"/>
</linearGradient>
<linearGradient id="paint10_linear_863_10187" x1="25.0239" y1="14.2888" x2="34.914" y2="-36.3857" gradientUnits="userSpaceOnUse">
<stop stop-color="#EAF6FF" stop-opacity="0"/>
<stop offset="1" stop-color="#B3DAFE"/>
</linearGradient>
<linearGradient id="paint11_linear_863_10187" x1="47.4125" y1="8.40626" x2="54.3728" y2="8.40626" gradientUnits="userSpaceOnUse">
<stop stop-color="#7BACDF" stop-opacity="0"/>
<stop offset="1" stop-color="#7BACDF"/>
</linearGradient>
<linearGradient id="paint12_linear_863_10187" x1="26" y1="8.17821" x2="26" y2="12.7662" gradientUnits="userSpaceOnUse">
<stop stop-color="#6F3F8A" stop-opacity="0"/>
<stop offset="1" stop-color="#6F3F8A"/>
</linearGradient>
<linearGradient id="paint13_linear_863_10187" x1="47.2669" y1="5.67045" x2="51.8574" y2="5.67045" gradientUnits="userSpaceOnUse">
<stop stop-color="#6F3F8A" stop-opacity="0"/>
<stop offset="1" stop-color="#6F3F8A"/>
</linearGradient>
<linearGradient id="paint14_linear_863_10187" x1="14.0199" y1="6.72992" x2="14.0199" y2="4.34985" gradientUnits="userSpaceOnUse">
<stop stop-color="#BEC6ED"/>
<stop offset="1" stop-color="#925CB4"/>
</linearGradient>
<linearGradient id="paint15_linear_863_10187" x1="29.1682" y1="4.01393" x2="32.0662" y2="6.91186" gradientUnits="userSpaceOnUse">
<stop stop-color="#FD8087"/>
<stop offset="1" stop-color="#FD3E2B"/>
</linearGradient>
<linearGradient id="paint16_linear_863_10187" x1="37.6094" y1="4.60347" x2="40.8228" y2="7.81686" gradientUnits="userSpaceOnUse">
<stop stop-color="#FEE97D"/>
<stop offset="1" stop-color="#FEA613"/>
</linearGradient>
<linearGradient id="paint17_linear_863_10187" x1="44.8694" y1="4.01393" x2="47.7673" y2="6.91186" gradientUnits="userSpaceOnUse">
<stop stop-color="#AEFFD1"/>
<stop offset="1" stop-color="#57BE92"/>
</linearGradient>
<linearGradient id="paint18_linear_863_10187" x1="22.6086" y1="33.382" x2="30.2895" y2="48.1788" gradientUnits="userSpaceOnUse">
<stop stop-color="#FD8087"/>
<stop offset="1" stop-color="#FD3E2B"/>
</linearGradient>
<linearGradient id="paint19_linear_863_10187" x1="16.9256" y1="30.8416" x2="31.0149" y2="44.9309" gradientUnits="userSpaceOnUse">
<stop stop-color="#E41F2D" stop-opacity="0"/>
<stop offset="0.3461" stop-color="#DE1E2B" stop-opacity="0.346"/>
<stop offset="0.8036" stop-color="#CE1B28" stop-opacity="0.804"/>
<stop offset="1" stop-color="#C41926"/>
</linearGradient>
<linearGradient id="paint20_linear_863_10187" x1="31.4193" y1="37.9102" x2="24.6389" y2="34.3416" gradientUnits="userSpaceOnUse">
<stop stop-color="#E41F2D" stop-opacity="0"/>
<stop offset="0.3461" stop-color="#DE1E2B" stop-opacity="0.346"/>
<stop offset="0.8036" stop-color="#CE1B28" stop-opacity="0.804"/>
<stop offset="1" stop-color="#C41926"/>
</linearGradient>
<linearGradient id="paint21_linear_863_10187" x1="30.7031" y1="44.3419" x2="26.8256" y2="40.4643" gradientUnits="userSpaceOnUse">
<stop stop-color="#E41F2D" stop-opacity="0"/>
<stop offset="0.3461" stop-color="#DE1E2B" stop-opacity="0.346"/>
<stop offset="0.8036" stop-color="#CE1B28" stop-opacity="0.804"/>
<stop offset="1" stop-color="#C41926"/>
</linearGradient>
<linearGradient id="paint22_linear_863_10187" x1="24.3355" y1="29.3306" x2="28.2314" y2="29.3306" gradientUnits="userSpaceOnUse">
<stop stop-color="#FEE97D"/>
<stop offset="1" stop-color="#FEA613"/>
</linearGradient>
<linearGradient id="paint23_linear_863_10187" x1="24.5431" y1="38.1818" x2="27.2462" y2="40.8848" gradientUnits="userSpaceOnUse">
<stop stop-color="#FEE97D"/>
<stop offset="1" stop-color="#FEA613"/>
</linearGradient>
<clipPath id="clip0_863_10187">
<rect width="52" height="52" fill="white"/>
</clipPath>
</defs>
</svg>
