<svg width="61" height="61" viewBox="0 0 61 61" fill="none" xmlns="http://www.w3.org/2000/svg">
<path d="M30.5 55.901C28.9631 55.901 27.4857 55.2934 26.4016 54.2092L21.9457 49.7533H8.88789C3.9793 49.7414 0 45.7621 0 40.8535V13.9992C0 9.09062 3.9793 5.11133 8.88789 5.11133H52.1002C57.0088 5.11133 60.9881 9.09062 60.9881 13.9992V40.8535C60.9881 45.7621 57.0088 49.7414 52.1002 49.7414H39.0543L34.5984 54.2092C33.5143 55.2934 32.0369 55.901 30.5 55.901Z" fill="url(#paint0_linear_863_10112)"/>
<path d="M52.1121 7.48242H8.88789C5.30176 7.48242 2.38281 10.4014 2.38281 13.9994V40.8537C2.38281 44.4518 5.30176 47.3588 8.88789 47.3588H22.9346L28.0934 52.5176C29.4277 53.852 31.5842 53.852 32.9066 52.5176L38.0654 47.3588H52.1121C55.7102 47.3588 58.6172 44.4398 58.6172 40.8537V13.9994C58.6172 10.4014 55.6982 7.48242 52.1121 7.48242Z" fill="url(#paint1_linear_863_10112)"/>
<path d="M26.175 26.2465C28.9781 26.2465 31.2504 23.9742 31.2504 21.1711C31.2504 18.368 28.9781 16.0957 26.175 16.0957C23.3719 16.0957 21.0996 18.368 21.0996 21.1711C21.0996 23.9742 23.3719 26.2465 26.175 26.2465Z" fill="white"/>
<path d="M21.207 28.2715H31.1314C33.5619 28.2715 35.5396 30.2492 35.5396 32.6797V36.0752C35.5396 37.2547 34.5865 38.2078 33.407 38.2078H18.9314C17.752 38.2078 16.7988 37.2547 16.7988 36.0752V32.6797C16.7988 30.2492 18.7646 28.2715 21.207 28.2715Z" fill="white"/>
<path d="M43.6299 24.5067L42.6649 23.5417L43.6299 22.5766C44.3805 21.8141 44.3805 20.5989 43.6299 19.8364C42.8674 19.0858 41.6522 19.0858 40.8897 19.8364L39.9247 20.8014L38.9596 19.8364C38.1971 19.0858 36.9819 19.0858 36.2194 19.8364C35.4688 20.5989 35.4688 21.8141 36.2194 22.5766L37.1844 23.5417L36.2075 24.5067C35.4569 25.2692 35.4569 26.4844 36.2075 27.2469C36.97 27.9975 38.1852 27.9975 38.9477 27.2469L39.9127 26.2819L40.8778 27.2469C41.6403 27.9975 42.8555 27.9975 43.618 27.2469C44.3805 26.4963 44.3805 25.2692 43.6299 24.5067Z" fill="white"/>
<defs>
<linearGradient id="paint0_linear_863_10112" x1="30.5" y1="56.1035" x2="30.5" y2="5.90719" gradientUnits="userSpaceOnUse">
<stop stop-color="#FDAE3E"/>
<stop offset="1" stop-color="#FF0749"/>
</linearGradient>
<linearGradient id="paint1_linear_863_10112" x1="30.5" y1="7.80291" x2="30.5" y2="51.1212" gradientUnits="userSpaceOnUse">
<stop stop-color="#FDAE3E"/>
<stop offset="1" stop-color="#FF0749"/>
</linearGradient>
</defs>
</svg>
