<svg width="56" height="56" viewBox="0 0 56 56" fill="none" xmlns="http://www.w3.org/2000/svg">
<g clip-path="url(#clip0_863_10086)">
<path d="M42.7119 29.4236L24.7053 40.2277C24.1042 40.5887 23.3534 40.5887 22.7523 40.2277L4.74576 29.4236L0 26.5762V54.1016C0.00324418 55.1485 0.851364 55.9967 1.89831 55.9999H45.5593C46.6063 55.9967 47.4544 55.1485 47.4576 54.1016V26.5762L42.7119 29.4236Z" fill="#57A4FF"/>
<path d="M4.74576 20.8809L0.920882 23.1777C0.350834 23.5202 0.00139037 24.1362 0 24.8007V26.5758L4.74576 29.4232V20.8809Z" fill="#006DF0"/>
<path d="M47.4567 26.5758V24.8007C47.4553 24.1362 47.1059 23.5202 46.5358 23.1777L42.7109 20.8809V29.4232L47.4567 26.5758Z" fill="#006DF0"/>
<path d="M42.7122 13.2891V29.4247L24.7066 40.2259C24.105 40.5874 23.3533 40.5874 22.7517 40.2259L4.74609 29.4247V13.2891H42.7122Z" fill="#FFDAAA"/>
<path d="M24.7071 10.0797C24.1056 9.71822 23.3538 9.71822 22.7523 10.0797L17.4082 13.2877H30.0512L24.7071 10.0797Z" fill="#006DF0"/>
<path d="M16.1348 21.8297L23.728 26.5755L31.3212 21.8297L23.728 17.084L16.1348 21.8297Z" fill="#ED1C24"/>
<path d="M23.7285 36.0674L31.3217 31.3216V21.8301L23.7285 26.5758V36.0674Z" fill="#006DF0"/>
<path d="M16.1348 21.8301V31.3216L23.728 36.0674V26.5758L16.1348 21.8301Z" fill="#FFCD00"/>
<path d="M0 36.0684V54.1023C0 55.1506 0.849973 56.0006 1.89831 56.0006H23.7288C10.6135 56.0006 0 47.0851 0 36.0684Z" fill="#2488FF"/>
<path d="M40.8145 0V1.89831C48.15 1.90618 54.0947 7.8509 54.1026 15.1864H56.0009C55.9912 6.8035 49.1974 0.00973252 40.8145 0Z" fill="#006DF0"/>
<path d="M40.8145 3.79688V5.69518C46.0543 5.70074 50.3004 9.9469 50.306 15.1867H52.2043C52.1973 8.89903 47.1021 3.80383 40.8145 3.79688Z" fill="#006DF0"/>
<path d="M40.8145 7.59375V9.49206C43.9585 9.4953 46.5061 12.0429 46.5094 15.187H48.4077C48.403 10.9955 45.0059 7.59838 40.8145 7.59375Z" fill="#006DF0"/>
<path d="M4.74609 49.3555H16.1359V51.2538H4.74609V49.3555Z" fill="#F1F2F2"/>
<path d="M4.74609 45.5586H16.1359V47.4569H4.74609V45.5586Z" fill="#F1F2F2"/>
</g>
<defs>
<clipPath id="clip0_863_10086">
<rect width="56" height="56" fill="white"/>
</clipPath>
</defs>
</svg>
